<svg width="118" height="118" viewBox="0 0 118 118" fill="none" xmlns="http://www.w3.org/2000/svg">
<path fill-rule="evenodd" clip-rule="evenodd" d="M54.4279 90.3678C54.4268 90.3713 54.423 90.3734 54.4195 90.3723C54.4165 90.3714 54.4136 90.3705 54.4107 90.3696C54.4022 90.367 54.3974 90.3581 54.4 90.3496L54.4004 90.3484C55.2043 87.7228 55.8119 85.3679 56.2199 83.1587C56.3989 82.1894 55.205 81.4366 54.236 81.617C53.9441 81.6713 53.6441 81.7034 53.3379 81.7114C50.2015 81.7935 47.5924 79.3174 47.5103 76.181C47.4283 73.0446 49.9043 70.4356 53.0407 70.3535C53.3446 70.3456 53.6436 70.3616 53.9358 70.4C54.9127 70.5282 56.0642 69.7132 55.8349 68.7549C55.3845 66.8727 54.7818 64.8872 54.0247 62.7199C53.8215 62.138 54.1189 61.4971 54.7001 61.2917C56.8649 60.5269 58.8489 59.9191 60.7317 59.4662C61.6914 59.2353 62.5077 60.3918 62.3776 61.3703C62.3384 61.6654 62.3219 61.9674 62.3299 62.2744C62.412 65.4108 65.0211 67.8869 68.1575 67.8048C71.2939 67.7228 73.7699 65.1137 73.6879 61.9773C73.6799 61.6741 73.6484 61.377 73.595 61.0879C73.4159 60.1174 74.1726 58.9216 75.1427 59.103C77.3434 59.5144 79.6915 60.1238 82.3091 60.9276C82.3187 60.9306 82.3241 60.9408 82.3211 60.9505C81.5128 63.5601 80.9049 65.9089 80.4994 68.1188C80.3217 69.0871 81.5133 69.8364 82.4809 69.6551C82.775 69.6 83.0772 69.5674 83.3858 69.5594C86.5222 69.4773 89.1313 71.9534 89.2134 75.0898C89.2954 78.2262 86.8194 80.8352 83.683 80.9173C83.3833 80.9251 83.0884 80.9096 82.8001 80.8724C81.8247 80.7465 80.6789 81.5608 80.9075 82.5174C81.4295 84.7022 82.1536 87.0232 83.082 89.598C83.0826 89.5995 83.0818 89.6011 83.0804 89.6016L83.0595 89.6093C80.4919 90.5264 78.1827 91.2418 76.0122 91.7582C75.0585 91.9851 74.2473 90.8484 74.3706 89.8759C74.4067 89.5916 74.4216 89.301 74.4139 89.0057C74.3571 86.836 73.0911 84.9824 71.2777 84.0729C70.465 83.6615 69.5415 83.4401 68.5671 83.4656C65.4307 83.5477 62.9547 86.1567 63.0367 89.2931C63.0447 89.599 63.0768 89.8986 63.131 90.1902C63.3105 91.1558 62.5633 92.3412 61.597 92.1658C60.0489 91.8847 58.4297 91.5061 56.6964 91.0309C55.964 90.8261 55.2117 90.6035 54.4364 90.3633C54.4328 90.3622 54.429 90.3642 54.4279 90.3678Z" fill="#BBDAFF"/>
<path d="M54.4004 90.3484L53.33 90.022L53.3303 90.0208L54.4004 90.3484ZM83.0595 89.6093L83.4455 90.6597L83.4359 90.6631L83.0595 89.6093ZM71.2777 84.0729L70.776 85.0733L70.7722 85.0713L71.2777 84.0729ZM56.6964 91.0309L56.4005 92.1101L56.395 92.1086L56.6964 91.0309ZM63.131 90.1902L62.0308 90.3948L63.131 90.1902ZM80.4994 68.1188L81.6001 68.3208L80.4994 68.1188ZM82.4809 69.6551L82.6871 70.755L82.4809 69.6551ZM82.3211 60.9505L81.2522 60.6194L82.3211 60.9505ZM73.595 61.0879L72.4945 61.291L73.595 61.0879ZM75.1427 59.103L75.3484 58.003L75.1427 59.103ZM82.8001 80.8724L82.9433 79.7625L82.8001 80.8724ZM80.9075 82.5174L81.9959 82.2573L80.9075 82.5174ZM60.7317 59.4662L60.4699 58.3782L60.7317 59.4662ZM62.3776 61.3703L61.2683 61.2229L62.3776 61.3703ZM55.8349 68.7549L56.9232 68.4944L55.8349 68.7549ZM54.4364 90.3633L54.1052 91.4322L54.4364 90.3633ZM54.0247 62.7199L52.9683 63.0889L54.0247 62.7199ZM54.7001 61.2917L55.0728 62.3469L54.7001 61.2917ZM56.2199 83.1587L55.1195 82.9555L56.2199 83.1587ZM54.236 81.617L54.0312 80.5168L54.236 81.617ZM74.3706 89.8759L75.4808 90.0167L74.3706 89.8759ZM54.4195 90.3723L54.744 89.3013L54.4195 90.3723ZM83.0804 89.6016L82.6943 88.5512L83.0804 89.6016ZM54.4107 90.3696L54.086 91.4405L54.4107 90.3696ZM54.4 90.3496L53.3296 90.0232L54.4 90.3496ZM54.7353 89.2987C54.7382 89.2996 54.7411 89.3004 54.744 89.3013L54.0949 91.4432C54.0919 91.4423 54.089 91.4414 54.086 91.4405L54.7353 89.2987ZM55.4708 90.6748L55.4704 90.676L53.3296 90.0232L53.33 90.022L55.4708 90.6748ZM57.3203 83.3619C56.9023 85.6255 56.2825 88.0237 55.4704 90.676L53.3303 90.0208C54.1261 87.4219 54.7215 85.1102 55.1195 82.9555L57.3203 83.3619ZM53.3086 80.5927C53.5557 80.5863 53.797 80.5604 54.0312 80.5168L54.4408 82.7171C54.0912 82.7822 53.7325 82.8205 53.3671 82.8301L53.3086 80.5927ZM48.629 76.1518C48.6949 78.6703 50.79 80.6586 53.3086 80.5927L53.3671 82.8301C49.6129 82.9283 46.4899 79.9645 46.3917 76.2103L48.629 76.1518ZM53.07 71.4722C50.5514 71.5381 48.5631 73.6332 48.629 76.1518L46.3917 76.2103C46.2935 72.4561 49.2572 69.3331 53.0115 69.2348L53.07 71.4722ZM53.7901 71.5095C53.5557 71.4787 53.3152 71.4658 53.07 71.4722L53.0115 69.2348C53.374 69.2254 53.7315 69.2445 54.0814 69.2904L53.7901 71.5095ZM55.0812 62.3508C55.8472 64.5436 56.4618 66.5664 56.9232 68.4944L54.7466 69.0153C54.3071 67.179 53.7165 65.2307 52.9683 63.0889L55.0812 62.3508ZM60.9934 60.5542C59.1576 60.9959 57.2116 61.5912 55.0728 62.3469L54.3273 60.2366C56.5182 59.4625 58.5403 58.8424 60.4699 58.3782L60.9934 60.5542ZM61.2113 62.3037C61.2017 61.9374 61.2213 61.5763 61.2683 61.2229L63.4869 61.5178C63.4555 61.7545 63.4421 61.9974 63.4486 62.2452L61.2113 62.3037ZM68.1867 68.9235C64.4325 69.0217 61.3095 66.0579 61.2113 62.3037L63.4486 62.2452C63.5145 64.7637 65.6096 66.752 68.1282 66.6861L68.1867 68.9235ZM74.8065 61.948C74.9047 65.7022 71.941 68.8253 68.1867 68.9235L68.1282 66.6861C70.6468 66.6203 72.6351 64.5251 72.5692 62.0065L74.8065 61.948ZM74.6955 60.8848C74.7594 61.2311 74.7971 61.5863 74.8065 61.948L72.5692 62.0065C72.5628 61.7619 72.5374 61.5229 72.4945 61.291L74.6955 60.8848ZM81.9806 61.9974C79.3894 61.2017 77.084 60.6044 74.937 60.203L75.3484 58.003C77.6028 58.4245 79.9937 59.046 82.6376 59.8579L81.9806 61.9974ZM79.3987 67.9169C79.8145 65.651 80.4351 63.2575 81.2522 60.6194L83.3901 61.2816C82.5906 63.8627 81.9953 66.1667 81.6001 68.3208L79.3987 67.9169ZM83.4151 70.678C83.1661 70.6846 82.923 70.7108 82.6871 70.755L82.2748 68.5552C82.627 68.4892 82.9883 68.4503 83.3566 68.4407L83.4151 70.678ZM88.0947 75.119C88.0288 72.6004 85.9337 70.6121 83.4151 70.678L83.3566 68.4407C87.1108 68.3425 90.2338 71.3063 90.332 75.0605L88.0947 75.119ZM83.6537 79.7986C86.1723 79.7327 88.1606 77.6376 88.0947 75.119L90.332 75.0605C90.4302 78.8147 87.4665 81.9377 83.7122 82.0359L83.6537 79.7986ZM82.9433 79.7625C83.1747 79.7924 83.4119 79.8049 83.6537 79.7986L83.7122 82.0359C83.3547 82.0453 83.0021 82.0268 82.6568 81.9822L82.9433 79.7625ZM82.0293 89.9776C81.0916 87.3769 80.3535 85.0144 79.819 82.7774L81.9959 82.2573C82.5054 84.3899 83.2157 86.6694 84.1347 89.2185L82.0293 89.9776ZM82.6734 88.5589L82.6943 88.5512L83.4664 90.6519L83.4455 90.6596L82.6734 88.5589ZM75.7532 90.6695C77.8722 90.1653 80.1406 89.4636 82.683 88.5554L83.4359 90.6631C80.8431 91.5893 78.4931 92.3182 76.2712 92.8468L75.7532 90.6695ZM73.2605 89.7351C73.2894 89.507 73.3015 89.2733 73.2952 89.035L75.5326 88.9764C75.5418 89.3287 75.524 89.6762 75.4808 90.0167L73.2605 89.7351ZM73.2952 89.035C73.2497 87.2942 72.2351 85.805 70.776 85.0733L71.7793 83.0726C73.947 84.1597 75.4646 86.3778 75.5326 88.9764L73.2952 89.035ZM68.5378 82.3469C69.7022 82.3165 70.8091 82.5814 71.7831 83.0746L70.7722 85.0713C70.121 84.7416 69.3808 84.5638 68.5964 84.5843L68.5378 82.3469ZM61.918 89.3224C61.8198 85.5682 64.7836 82.4452 68.5378 82.3469L68.5964 84.5843C66.0778 84.6502 64.0895 86.7453 64.1554 89.2639L61.918 89.3224ZM62.0308 90.3948C61.9658 90.0456 61.9276 89.6873 61.918 89.3224L64.1554 89.2639C64.1618 89.5107 64.1877 89.7517 64.2312 89.9856L62.0308 90.3948ZM56.9923 89.9517C58.7008 90.4201 60.2874 90.7907 61.7969 91.0647L61.3971 93.2668C59.8104 92.9788 58.1587 92.5921 56.4005 92.1101L56.9923 89.9517ZM56.395 92.1086C55.6515 91.9007 54.8893 91.6752 54.1052 91.4322L54.7676 89.2944C55.5341 89.5319 56.2764 89.7515 56.9978 89.9532L56.395 92.1086ZM64.2312 89.9856C64.3827 90.8002 64.146 91.6444 63.7011 92.2607C63.252 92.8831 62.4352 93.4553 61.3971 93.2668L61.7969 91.0647C61.7816 91.062 61.7649 91.0681 61.7692 91.066C61.7833 91.0589 61.8299 91.0291 61.8863 90.951C61.9417 90.8742 61.9893 90.7737 62.0161 90.6643C62.043 90.5548 62.0431 90.4612 62.0308 90.3948L64.2312 89.9856ZM81.6001 68.3208C81.6029 68.3051 81.5967 68.2879 81.5988 68.2922C81.6059 68.3063 81.6359 68.3533 81.7147 68.4101C81.7923 68.4659 81.8936 68.5137 82.0038 68.5407C82.1141 68.5676 82.2082 68.5677 82.2748 68.5552L82.6871 70.755C81.8709 70.908 81.0244 70.6711 80.4066 70.2261C79.7831 69.7769 79.2076 68.9582 79.3987 67.9169L81.6001 68.3208ZM82.6356 59.8573C83.2448 60.0431 83.5744 60.6865 83.3901 61.2816L81.2522 60.6194C81.0738 61.1952 81.3926 61.818 81.9826 61.998L82.6356 59.8573ZM72.4945 61.291C72.3435 60.4724 72.5842 59.6245 73.0317 59.0069C73.483 58.384 74.305 57.8079 75.3484 58.003L74.937 60.203C74.9529 60.2059 74.9699 60.1995 74.9648 60.202C74.9499 60.2095 74.9019 60.2402 74.8441 60.32C74.7873 60.3985 74.7386 60.5009 74.711 60.612C74.6835 60.7233 74.6832 60.818 74.6955 60.8848L72.4945 61.291ZM82.6568 81.9822C82.5897 81.9736 82.4959 81.9789 82.3875 82.0121C82.2792 82.0451 82.1807 82.0986 82.1063 82.1588C82.0308 82.2199 82.003 82.2688 81.9964 82.284C81.9942 82.2892 81.9995 82.2724 81.9959 82.2573L79.819 82.7774C79.5736 81.7501 80.1014 80.9022 80.6982 80.4191C81.2896 79.9405 82.1204 79.6563 82.9433 79.7625L82.6568 81.9822ZM60.4699 58.3782C61.5025 58.1298 62.353 58.6638 62.8352 59.2633C63.3134 59.8576 63.5966 60.6925 63.4869 61.5178L61.2683 61.2229C61.2773 61.1556 61.2722 61.0609 61.239 60.9511C61.2059 60.8415 61.1521 60.7417 61.0914 60.6662C61.0297 60.5894 60.9803 60.5612 60.9651 60.5546C60.9602 60.5525 60.9776 60.558 60.9934 60.5542L60.4699 58.3782ZM54.0814 69.2904C54.1486 69.2993 54.2428 69.2941 54.352 69.261C54.461 69.2279 54.5602 69.1743 54.6352 69.1138C54.7114 69.0523 54.7395 69.0032 54.7461 68.9879C54.7483 68.9828 54.7429 68.9998 54.7466 69.0153L56.9232 68.4944C57.1697 69.5245 56.6385 70.3735 56.0402 70.856C55.4472 71.3342 54.6142 71.6177 53.7901 71.5095L54.0814 69.2904ZM54.1052 91.4322C54.6924 91.6142 55.3181 91.285 55.4983 90.6942L53.3575 90.0414C53.5399 89.4434 54.1732 89.1102 54.7676 89.2944L54.1052 91.4322ZM52.9683 63.0889C52.5674 61.9412 53.1488 60.653 54.3273 60.2366L55.0728 62.3469C55.0725 62.347 55.0733 62.3467 55.0749 62.3458C55.0764 62.3449 55.0778 62.3438 55.079 62.3427C55.0812 62.3406 55.0814 62.3397 55.0809 62.3407C55.0804 62.3418 55.08 62.3433 55.08 62.3446C55.0799 62.3452 55.0799 62.3458 55.08 62.3465C55.0801 62.3471 55.0804 62.3485 55.0812 62.3508L52.9683 63.0889ZM55.1195 82.9555C55.1165 82.9712 55.1229 82.9882 55.1205 82.9834C55.1132 82.9688 55.0827 82.9213 55.0034 82.864C54.9253 82.8076 54.8233 82.7593 54.7127 82.7321C54.6018 82.7049 54.5074 82.7047 54.4408 82.7171L54.0312 80.5168C54.8485 80.3646 55.6957 80.6033 56.3135 81.0494C56.9369 81.4995 57.5128 82.3196 57.3203 83.3619L55.1195 82.9555ZM76.2712 92.8468C75.248 93.0903 74.4024 92.5673 73.919 91.9724C73.4404 91.3833 73.1564 90.5558 73.2605 89.7351L75.4808 90.0167C75.4723 90.0835 75.4779 90.1765 75.5108 90.2837C75.5436 90.3908 75.5966 90.4879 75.6561 90.5611C75.7165 90.6355 75.7646 90.6627 75.7794 90.6691C75.7843 90.6712 75.7678 90.666 75.7532 90.6695L76.2712 92.8468ZM54.744 89.3013C54.1568 89.1234 53.5365 89.4545 53.3575 90.0414L55.4983 90.6942C55.3172 91.2881 54.6893 91.6234 54.0949 91.4432L54.744 89.3013ZM84.1333 89.2144C84.3453 89.7955 84.047 90.4385 83.4664 90.6519L82.6943 88.5512C82.1166 88.7636 81.8198 89.4035 82.0308 89.9816L84.1333 89.2144ZM54.086 91.4405C53.4853 91.2584 53.1466 90.6234 53.3296 90.0232L55.4704 90.676C55.6483 90.0928 55.3191 89.4757 54.7353 89.2987L54.086 91.4405Z" fill="#535353"/>
<path fill-rule="evenodd" clip-rule="evenodd" d="M59.7534 47.2082C59.8355 50.3446 57.3594 52.9537 54.223 53.0357C53.9242 53.0435 53.6302 53.0281 53.3427 52.9912C52.3692 52.866 51.2281 53.6774 51.4548 54.6325C51.9716 56.8095 52.6887 59.1259 53.6091 61.7024L53.617 61.7238C53.6174 61.725 53.6187 61.7257 53.6199 61.7252C56.1953 60.7967 58.5166 60.0724 60.7018 59.5504C61.6582 59.3219 62.4723 60.4671 62.3465 61.4423C62.3094 61.7304 62.2939 62.0251 62.3017 62.3246C62.3838 65.461 64.9929 67.937 68.1293 67.8549C71.2657 67.7729 73.7417 65.1638 73.6596 62.0274C73.6516 61.7192 73.6191 61.4173 73.5641 61.1236C73.383 60.1562 74.1323 58.9651 75.1004 59.1428C77.31 59.5483 79.6584 60.1562 82.2675 60.9643C82.2773 60.9673 82.2878 60.9619 82.2908 60.9521C83.0948 58.3336 83.7044 55.9847 84.1158 53.7834C84.2972 52.8133 83.1013 52.0566 82.1308 52.2358C81.8415 52.2892 81.5443 52.3208 81.2409 52.3287C78.1045 52.4108 75.4954 49.9348 75.4134 46.7984C75.3313 43.662 77.8073 41.0529 80.9438 40.9708C81.2507 40.9628 81.5526 40.9793 81.8476 41.0185C82.8261 41.1485 83.9826 40.3321 83.7516 39.3724C83.2987 37.4903 82.6912 35.507 81.9266 33.3431C81.7213 32.7619 81.0804 32.4645 80.4985 32.6678C78.3316 33.4247 76.3464 34.0273 74.4645 34.4777C73.506 34.7071 72.6907 33.555 72.8192 32.5778C72.8576 32.2853 72.8737 31.986 72.8658 31.6818C72.7837 28.5454 70.1746 26.0694 67.0382 26.1514C63.9018 26.2335 61.4258 28.8426 61.5078 31.979C61.5159 32.2857 61.5481 32.5861 61.6026 32.8785C61.7832 33.8477 61.0303 35.0424 60.0608 34.8634C57.8512 34.4554 55.4958 33.8476 52.8696 33.0435C52.8606 33.0408 52.8511 33.046 52.8484 33.0549C52.0534 35.6773 51.4539 38.0298 51.053 40.2379C50.8775 41.2043 52.0631 41.9517 53.0288 41.7721C53.3203 41.7179 53.62 41.6858 53.9259 41.6778C57.0623 41.5958 59.6714 44.0718 59.7534 47.2082Z" fill="#D7E9FF"/>
<path d="M53.6091 61.7024L52.5587 62.0885L52.5552 62.0789L53.6091 61.7024ZM51.053 40.2379L49.9519 40.0379L51.053 40.2379ZM53.3427 52.9912L53.2 54.1011L53.3427 52.9912ZM51.4548 54.6325L52.5436 54.374L51.4548 54.6325ZM52.8484 33.0549L53.9193 33.3796L52.8484 33.0549ZM74.4645 34.4777L74.2041 33.3894L74.4645 34.4777ZM81.9266 33.3431L82.9818 32.9703L81.9266 33.3431ZM80.4985 32.6678L80.1295 31.6113L80.4985 32.6678ZM73.5641 61.1236L74.6641 60.9177L73.5641 61.1236ZM82.2675 60.9643L82.5986 59.8954L82.2675 60.9643ZM81.8476 41.0185L81.995 39.9092L81.8476 41.0185ZM83.7516 39.3724L84.8396 39.1106L83.7516 39.3724ZM60.7018 59.5504L60.9618 60.6388L60.7018 59.5504ZM53.617 61.7238L54.6673 61.3378L53.617 61.7238ZM84.1158 53.7834L85.2158 53.989L84.1158 53.7834ZM54.1938 51.9171C56.7123 51.8512 58.7006 49.756 58.6347 47.2375L60.8721 47.1789C60.9703 50.9332 58.0065 54.0562 54.2523 54.1544L54.1938 51.9171ZM53.4855 51.8813C53.7162 51.9109 53.9527 51.9234 54.1938 51.9171L54.2523 54.1544C53.8958 54.1637 53.5443 54.1454 53.2 54.1011L53.4855 51.8813ZM52.5552 62.0789C51.6259 59.4771 50.8951 57.1197 50.366 54.8909L52.5436 54.374C53.0481 56.4994 53.7516 58.7748 54.6629 61.326L52.5552 62.0789ZM52.5666 62.1099L52.5587 62.0885L54.6594 61.3164L54.6673 61.3378L52.5666 62.1099ZM60.9618 60.6388C58.8289 61.1483 56.549 61.8587 53.9995 62.7779L53.2404 60.6725C55.8415 59.7346 58.2044 58.9964 60.4417 58.4619L60.9618 60.6388ZM61.1831 62.3538C61.1737 61.9965 61.1922 61.6443 61.2367 61.2992L63.4564 61.5855C63.4266 61.8166 63.4141 62.0536 63.4204 62.2953L61.1831 62.3538ZM68.1585 68.9736C64.4043 69.0718 61.2813 66.108 61.1831 62.3538L63.4204 62.2953C63.4863 64.8139 65.5814 66.8022 68.1 66.7363L68.1585 68.9736ZM74.7783 61.9981C74.8765 65.7524 71.9128 68.8754 68.1585 68.9736L68.1 66.7363C70.6186 66.6704 72.6069 64.5753 72.541 62.0567L74.7783 61.9981ZM74.6641 60.9177C74.7299 61.2694 74.7687 61.6304 74.7783 61.9981L72.541 62.0567C72.5345 61.8079 72.5083 61.5651 72.4642 61.3295L74.6641 60.9177ZM81.9364 62.0333C79.3557 61.2339 77.0521 60.6387 74.8984 60.2435L75.3024 58.0421C77.5679 58.4579 79.961 59.0784 82.5986 59.8954L81.9364 62.0333ZM85.2158 53.989C84.7943 56.2441 84.1727 58.6357 83.3605 61.2806L81.221 60.6236C82.017 58.0315 82.6144 55.7254 83.0158 53.5778L85.2158 53.989ZM81.2116 51.2101C81.4564 51.2037 81.6955 51.1782 81.9276 51.1354L82.3339 53.3363C81.9874 53.4002 81.6321 53.4379 81.2702 53.4474L81.2116 51.2101ZM76.532 46.7691C76.5979 49.2877 78.6931 51.276 81.2116 51.2101L81.2702 53.4474C77.5159 53.5456 74.3929 50.5818 74.2947 46.8276L76.532 46.7691ZM80.973 42.0895C78.4544 42.1554 76.4661 44.2505 76.532 46.7691L74.2947 46.8276C74.1965 43.0734 77.1603 39.9504 80.9145 39.8522L80.973 42.0895ZM81.7002 42.1278C81.4635 42.0963 81.2207 42.083 80.973 42.0895L80.9145 39.8522C81.2807 39.8426 81.6417 39.8622 81.995 39.9092L81.7002 42.1278ZM82.9818 32.9703C83.7555 35.1603 84.3755 37.1817 84.8396 39.1106L82.6636 39.6342C82.222 37.799 81.6268 35.8537 80.8715 33.7159L82.9818 32.9703ZM74.2041 33.3894C76.0401 32.95 77.988 32.3594 80.1295 31.6113L80.8676 33.7242C78.6752 34.4901 76.6527 35.1047 74.725 35.566L74.2041 33.3894ZM73.9844 31.6526C73.9939 32.0155 73.9747 32.3733 73.9287 32.7236L71.7097 32.4319C71.7405 32.1973 71.7535 31.9566 71.7471 31.7111L73.9844 31.6526ZM67.009 25.0328C70.7632 24.9346 73.8862 27.8983 73.9844 31.6526L71.7471 31.7111C71.6812 29.1925 69.5861 27.2042 67.0675 27.2701L67.009 25.0328ZM60.3892 32.0082C60.291 28.254 63.2547 25.131 67.009 25.0328L67.0675 27.2701C64.5489 27.336 62.5606 29.4311 62.6265 31.9497L60.3892 32.0082ZM60.5025 33.0836C60.4372 32.7334 60.3987 32.3742 60.3892 32.0082L62.6265 31.9497C62.633 32.1972 62.6589 32.4389 62.7027 32.6734L60.5025 33.0836ZM53.1972 31.9735C55.7967 32.7694 58.1088 33.365 60.264 33.7629L59.8576 35.9638C57.5936 35.5458 55.1949 34.9258 52.5419 34.1136L53.1972 31.9735ZM49.9519 40.0379C50.3628 37.7754 50.9743 35.3796 51.7775 32.7303L53.9193 33.3796C53.1325 35.975 52.5451 38.2841 52.154 40.4378L49.9519 40.0379ZM53.9552 42.7965C53.7083 42.8029 53.4673 42.8288 53.2334 42.8723L52.8241 40.6719C53.1734 40.6069 53.5316 40.5687 53.8966 40.5591L53.9552 42.7965ZM58.6347 47.2375C58.5689 44.7189 56.4737 42.7306 53.9552 42.7965L53.8966 40.5591C57.6508 40.4609 60.7739 43.4247 60.8721 47.1789L58.6347 47.2375ZM52.154 40.4378C52.1568 40.4226 52.1506 40.4058 52.1528 40.4102C52.1599 40.4243 52.1897 40.471 52.2678 40.5273C52.3447 40.5828 52.4452 40.6304 52.5546 40.6572C52.6641 40.6841 52.7577 40.6843 52.8241 40.6719L53.2334 42.8723C52.4186 43.0238 51.5744 42.787 50.958 42.3421C50.3357 41.893 49.7634 41.0761 49.9519 40.0379L52.154 40.4378ZM53.2 54.1011C53.1331 54.0925 53.0397 54.0979 52.932 54.1308C52.8244 54.1636 52.7267 54.2167 52.6529 54.2764C52.578 54.3371 52.5505 54.3855 52.5441 54.4004C52.5419 54.4054 52.5471 54.3889 52.5436 54.374L50.366 54.8909C50.1227 53.8659 50.6483 53.0198 51.2444 52.5371C51.8349 52.0589 52.664 51.7756 53.4855 51.8813L53.2 54.1011ZM52.5431 34.1139C53.1325 34.2937 53.7445 33.9562 53.9193 33.3796L51.7775 32.7303C51.9577 32.1357 52.5887 31.7879 53.196 31.9732L52.5431 34.1139ZM62.7027 32.6734C62.8551 33.4909 62.6164 34.3384 62.1704 34.9564C61.7204 35.5799 60.9003 36.1563 59.8576 35.9638L60.264 33.7629C60.2482 33.76 60.2312 33.7664 60.236 33.764C60.2507 33.7566 60.2982 33.7261 60.3556 33.6466C60.412 33.5684 60.4603 33.4664 60.4875 33.3556C60.5148 33.2447 60.5149 33.1502 60.5025 33.0836L62.7027 32.6734ZM74.725 35.566C73.6947 35.8126 72.8455 35.281 72.3631 34.6826C71.8848 34.0894 71.6013 33.2562 71.7097 32.4319L73.9287 32.7236C73.9198 32.7908 73.925 32.8851 73.9582 32.9944C73.9912 33.1035 74.0449 33.2028 74.1054 33.2779C74.1669 33.3542 74.2162 33.3823 74.2315 33.3889C74.2366 33.3912 74.2196 33.3857 74.2041 33.3894L74.725 35.566ZM80.8715 33.7159C80.8714 33.7155 80.8717 33.7164 80.8726 33.7179C80.8735 33.7194 80.8746 33.7208 80.8757 33.722C80.8777 33.7243 80.8787 33.7245 80.8777 33.724C80.8766 33.7235 80.8751 33.7231 80.8738 33.723C80.8732 33.723 80.8726 33.723 80.8719 33.7231C80.8712 33.7232 80.8699 33.7234 80.8676 33.7242L80.1295 31.6113C81.2772 31.2104 82.5654 31.7919 82.9818 32.9703L80.8715 33.7159ZM72.4642 61.3295C72.3114 60.5134 72.5483 59.6672 72.9934 59.0496C73.4426 58.4261 74.2613 57.8511 75.3024 58.0421L74.8984 60.2435C74.914 60.2463 74.9312 60.2401 74.927 60.2422C74.9128 60.2492 74.8659 60.2793 74.8092 60.358C74.7534 60.4355 74.7056 60.5367 74.6786 60.6468C74.6517 60.7571 74.6516 60.8511 74.6641 60.9177L72.4642 61.3295ZM82.5986 59.8954C82.0229 59.717 81.4003 60.0358 81.2204 60.6256L83.3611 61.2785C83.1752 61.888 82.5317 62.2176 81.9364 62.0333L82.5986 59.8954ZM81.995 39.9092C82.0622 39.9181 82.1569 39.913 82.2667 39.8799C82.3763 39.8467 82.4762 39.7929 82.5517 39.7322C82.6284 39.6705 82.6566 39.6211 82.6632 39.6059C82.6653 39.601 82.6598 39.6184 82.6636 39.6342L84.8396 39.1106C85.0881 40.1431 84.5541 40.9936 83.9546 41.476C83.3603 41.9541 82.5255 42.2374 81.7002 42.1278L81.995 39.9092ZM60.4417 58.4619C61.4689 58.2166 62.3166 58.7441 62.7997 59.3408C63.2784 59.932 63.5625 60.7626 63.4564 61.5855L61.2367 61.2992C61.2453 61.2322 61.24 61.1384 61.2068 61.03C61.1738 60.9218 61.1204 60.8234 61.0602 60.7491C60.9991 60.6736 60.9503 60.6459 60.9351 60.6393C60.93 60.6371 60.9467 60.6424 60.9618 60.6388L60.4417 58.4619ZM54.6673 61.3378C54.4548 60.7595 53.814 60.4626 53.2354 60.6743L54.0044 62.7761C53.4234 62.9887 52.78 62.6906 52.5666 62.1099L54.6673 61.3378ZM83.0158 53.5778C83.0129 53.5937 83.0192 53.6106 83.0168 53.6056C83.0093 53.5906 82.9786 53.5427 82.8988 53.4849C82.8203 53.428 82.7178 53.3793 82.6067 53.3518C82.4954 53.3242 82.4007 53.3239 82.3339 53.3363L81.9276 51.1354C82.7462 50.9842 83.5941 51.2249 84.2117 51.6723C84.8347 52.1236 85.4109 52.9456 85.2158 53.989L83.0158 53.5778Z" fill="#535353"/>
<path fill-rule="evenodd" clip-rule="evenodd" d="M24.9242 62.4735C24.9231 62.477 24.9194 62.479 24.9159 62.4779C24.9129 62.477 24.9098 62.4761 24.9067 62.4752C24.8981 62.4725 24.8933 62.4634 24.8959 62.4548L24.8962 62.4539C25.7001 59.8283 26.3077 57.4734 26.7157 55.2642C26.8947 54.295 25.7009 53.5422 24.7319 53.7225C24.4401 53.7768 24.1402 53.8089 23.834 53.8169C20.6976 53.899 18.0885 51.423 18.0064 48.2866C17.9244 45.1502 20.4004 42.5411 23.5368 42.459C23.8407 42.4511 24.1396 42.4671 24.4317 42.5055C25.4086 42.6337 26.56 41.8187 26.3307 40.8604C25.8803 38.9782 25.2777 36.9927 24.5206 34.8253C24.3173 34.2435 24.6147 33.6025 25.1959 33.3972C27.3607 32.6324 29.3447 32.0246 31.2275 31.5717C32.1872 31.3408 33.0035 32.4973 32.8734 33.4758C32.8342 33.7708 32.8177 34.0728 32.8257 34.3799C32.9078 37.5163 35.5169 39.9923 38.6533 39.9103C41.7897 39.8282 44.2657 37.2191 44.1837 34.0827C44.1757 33.7795 44.1442 33.4825 44.0908 33.1933C43.9117 32.2228 44.6684 31.0271 45.6385 31.2084C47.8392 31.6199 50.1873 32.2293 52.8049 33.0331C52.8145 33.036 52.8199 33.0463 52.8169 33.0559C52.0087 35.6655 51.4007 38.0142 50.9952 40.2242C50.8175 41.1925 52.0093 41.9419 52.9769 41.7605C53.271 41.7053 53.5733 41.6728 53.882 41.6647C57.0184 41.5827 59.6275 44.0587 59.7095 47.1951C59.7916 50.3315 57.3155 52.9406 54.1791 53.0226C53.8793 53.0305 53.5844 53.0149 53.296 52.9777C52.3206 52.8517 51.1747 53.6661 51.4032 54.6227C51.9252 56.8075 52.6494 59.1286 53.5778 61.7035C53.5784 61.7049 53.5776 61.7065 53.5762 61.7071L53.5553 61.7148C50.9878 62.6319 48.6787 63.3472 46.5084 63.8635C45.5548 64.0904 44.7436 62.954 44.8669 61.9816C44.9029 61.6974 44.9178 61.407 44.9101 61.1118C44.8543 58.979 43.6299 57.1515 41.8657 56.2262C41.031 55.7842 40.0744 55.5446 39.0629 55.5711C35.9265 55.6531 33.4505 58.2622 33.5325 61.3986C33.5405 61.7045 33.5726 62.0041 33.6268 62.2957C33.8063 63.2613 33.0591 64.4467 32.0928 64.2713C30.529 63.9874 28.8929 63.6039 27.1397 63.122C26.4239 62.9212 25.6892 62.7036 24.9325 62.4691C24.929 62.4681 24.9253 62.47 24.9242 62.4735Z" fill="#4D9FFF"/>
<path d="M24.8962 62.4539L23.8258 62.1274L23.8262 62.1262L24.8962 62.4539ZM53.5553 61.7148L53.9413 62.7652L53.9317 62.7686L53.5553 61.7148ZM41.8657 56.2262L41.3459 57.2172L41.3421 57.2151L41.8657 56.2262ZM27.1397 63.122L26.8431 64.201L26.8375 64.1994L27.1397 63.122ZM52.9769 41.7605L52.7707 40.6606L52.9769 41.7605ZM52.8169 33.0559L51.748 32.7249L52.8169 33.0559ZM45.6385 31.2084L45.4328 32.3084L45.6385 31.2084ZM51.4032 54.6227L50.3148 54.8827L51.4032 54.6227ZM31.2275 31.5717L31.4892 32.6597L31.2275 31.5717ZM24.4317 42.5055L24.2861 43.615L24.4317 42.5055ZM26.3307 40.8604L25.2424 41.1208L26.3307 40.8604ZM24.9325 62.4691L25.2637 61.4002L24.9325 62.4691ZM24.5206 34.8253L23.4641 35.1944L24.5206 34.8253ZM25.1959 33.3972L24.8231 32.3421L25.1959 33.3972ZM46.5084 63.8635L46.2493 62.7749L46.5084 63.8635ZM44.8669 61.9816L43.7567 61.8409L44.8669 61.9816ZM24.9159 62.4779L24.5914 63.5489L24.9159 62.4779ZM53.5762 61.7071L53.9622 62.7574L53.5762 61.7071ZM24.9067 62.4752L24.5821 63.5461L24.9067 62.4752ZM24.8959 62.4548L23.8255 62.1284L24.8959 62.4548ZM25.2314 61.4042C25.2344 61.4052 25.2375 61.4061 25.2405 61.407L24.5914 63.5489C24.5883 63.548 24.5852 63.547 24.5821 63.5461L25.2314 61.4042ZM25.9666 62.7803L25.9663 62.7813L23.8255 62.1284L23.8258 62.1274L25.9666 62.7803ZM27.8161 55.4674C27.3981 57.731 26.7783 60.1292 25.9662 62.7815L23.8262 62.1262C24.6219 59.5274 25.2173 57.2158 25.6153 55.061L27.8161 55.4674ZM23.8047 52.6983C24.0518 52.6918 24.293 52.6659 24.5271 52.6224L24.9367 54.8227C24.5871 54.8877 24.2285 54.926 23.8632 54.9356L23.8047 52.6983ZM19.1251 48.2573C19.191 50.7759 21.2861 52.7642 23.8047 52.6983L23.8632 54.9356C20.109 55.0338 16.986 52.07 16.8878 48.3158L19.1251 48.2573ZM23.5661 43.5777C21.0475 43.6436 19.0592 45.7387 19.1251 48.2573L16.8878 48.3158C16.7896 44.5616 19.7533 41.4386 23.5076 41.3404L23.5661 43.5777ZM24.2861 43.615C24.0517 43.5843 23.8113 43.5713 23.5661 43.5777L23.5076 41.3404C23.8701 41.3309 24.2274 41.35 24.5773 41.3959L24.2861 43.615ZM25.577 34.4563C26.343 36.6491 26.9577 38.6719 27.4191 40.6L25.2424 41.1208C24.803 39.2845 24.2123 37.3362 23.4641 35.1944L25.577 34.4563ZM31.4892 32.6597C29.6534 33.1013 27.7074 33.6967 25.5686 34.4524L24.8231 32.3421C27.014 31.568 29.0361 30.9479 30.9657 30.4837L31.4892 32.6597ZM31.7071 34.4092C31.6975 34.0428 31.7171 33.6817 31.7641 33.3283L33.9827 33.6232C33.9512 33.8599 33.9379 34.1028 33.9444 34.3506L31.7071 34.4092ZM38.6825 41.0289C34.9283 41.1272 31.8053 38.1634 31.7071 34.4092L33.9444 34.3506C34.0103 36.8692 36.1054 38.8575 38.624 38.7916L38.6825 41.0289ZM45.3023 34.0535C45.4005 37.8077 42.4368 40.9307 38.6825 41.0289L38.624 38.7916C41.1426 38.7257 43.1309 36.6306 43.065 34.112L45.3023 34.0535ZM45.1913 32.9903C45.2552 33.3366 45.2929 33.6917 45.3023 34.0535L43.065 34.112C43.0586 33.8673 43.0332 33.6284 42.9903 33.3964L45.1913 32.9903ZM52.4764 34.1028C49.8852 33.3071 47.5798 32.7099 45.4328 32.3084L45.8442 30.1085C48.0986 30.53 50.4895 31.1514 53.1334 31.9633L52.4764 34.1028ZM49.8945 40.0222C50.3103 37.7564 50.9309 35.3629 51.748 32.7249L53.8859 33.387C53.0864 35.9681 52.4911 38.2721 52.0959 40.4261L49.8945 40.0222ZM53.9112 42.7834C53.6621 42.7899 53.419 42.8161 53.1831 42.8604L52.7707 40.6606C53.123 40.5945 53.4844 40.5557 53.8527 40.546L53.9112 42.7834ZM58.5908 47.2244C58.5249 44.7058 56.4298 42.7175 53.9112 42.7834L53.8527 40.546C57.6069 40.4478 60.73 43.4116 60.8282 47.1658L58.5908 47.2244ZM54.1499 51.904C56.6684 51.8381 58.6567 49.7429 58.5908 47.2244L60.8282 47.1658C60.9264 50.92 57.9626 54.0431 54.2084 54.1413L54.1499 51.904ZM53.4393 51.8679C53.6707 51.8977 53.908 51.9103 54.1499 51.904L54.2084 54.1413C53.8507 54.1506 53.4981 54.1321 53.1527 54.0875L53.4393 51.8679ZM52.5251 62.0831C51.5874 59.4823 50.8493 57.1198 50.3148 54.8827L52.4917 54.3626C53.0012 56.4952 53.7115 58.7748 54.6306 61.3239L52.5251 62.0831ZM53.1692 60.6644L53.1901 60.6567L53.9622 62.7574L53.9413 62.7651L53.1692 60.6644ZM46.2493 62.7749C48.3683 62.2707 50.6366 61.569 53.1788 60.6609L53.9317 62.7686C51.3391 63.6947 48.9892 64.4236 46.7674 64.9522L46.2493 62.7749ZM43.7567 61.8409C43.7856 61.6129 43.7976 61.3792 43.7914 61.1411L46.0287 61.0825C46.0379 61.4347 46.0201 61.7819 45.977 62.1222L43.7567 61.8409ZM43.7914 61.1411C43.7466 59.4298 42.7655 57.9618 41.3459 57.2172L42.3855 55.2352C44.4942 56.3412 45.9619 58.5281 46.0287 61.0825L43.7914 61.1411ZM39.0336 54.4524C40.2425 54.4208 41.389 54.7075 42.3894 55.2372L41.3421 57.2151C40.673 56.8609 39.9063 56.6684 39.0922 56.6897L39.0336 54.4524ZM32.4138 61.4279C32.3156 57.6736 35.2794 54.5506 39.0336 54.4524L39.0922 56.6897C36.5736 56.7556 34.5853 58.8508 34.6512 61.3693L32.4138 61.4279ZM32.5266 62.5003C32.4616 62.151 32.4234 61.7928 32.4138 61.4279L34.6512 61.3693C34.6576 61.6162 34.6835 61.8572 34.727 62.0911L32.5266 62.5003ZM27.4363 62.0429C29.1646 62.518 30.7679 62.8934 32.2927 63.1702L31.8929 65.3723C30.2902 65.0814 28.6212 64.6898 26.8431 64.201L27.4363 62.0429ZM26.8375 64.1994C26.111 63.9957 25.3666 63.7752 24.6013 63.5381L25.2637 61.4002C26.0118 61.632 26.7368 61.8467 27.4419 62.0445L26.8375 64.1994ZM34.727 62.0911C34.8785 62.9057 34.6418 63.7498 34.1969 64.3662C33.7478 64.9886 32.931 65.5608 31.8929 65.3723L32.2927 63.1702C32.2774 63.1675 32.2607 63.1736 32.265 63.1714C32.2791 63.1644 32.3257 63.1346 32.3821 63.0565C32.4375 62.9797 32.4851 62.8791 32.5119 62.7698C32.5388 62.6603 32.5389 62.5667 32.5266 62.5003L34.727 62.0911ZM52.0959 40.4261C52.0988 40.4105 52.0925 40.3933 52.0946 40.3975C52.1017 40.4117 52.1318 40.4587 52.2106 40.5154C52.2881 40.5713 52.3895 40.6191 52.4997 40.6461C52.61 40.673 52.7042 40.6731 52.7707 40.6606L53.1831 42.8604C52.3668 43.0134 51.5204 42.7765 50.9026 42.3315C50.279 41.8824 49.7035 41.0636 49.8945 40.0222L52.0959 40.4261ZM53.1313 31.9627C53.7406 32.1485 54.0702 32.7919 53.8859 33.387L51.748 32.7249C51.5696 33.3007 51.8884 33.9235 52.4784 34.1035L53.1313 31.9627ZM42.9903 33.3964C42.8393 32.5778 43.0801 31.73 43.5275 31.1124C43.9788 30.4895 44.8008 29.9134 45.8442 30.1085L45.4328 32.3084C45.4487 32.3114 45.4657 32.305 45.4607 32.3075C45.4457 32.315 45.3977 32.3457 45.3399 32.4255C45.2831 32.504 45.2344 32.6064 45.2068 32.7175C45.1793 32.8288 45.179 32.9235 45.1913 32.9903L42.9903 33.3964ZM53.1527 54.0875C53.0856 54.0789 52.9918 54.0842 52.8833 54.1174C52.775 54.1504 52.6765 54.2039 52.6021 54.2641C52.5266 54.3253 52.4988 54.3741 52.4922 54.3893C52.4899 54.3945 52.4953 54.3778 52.4917 54.3626L50.3148 54.8827C50.0694 53.8553 50.5973 53.0074 51.1941 52.5244C51.7855 52.0457 52.6163 51.7616 53.4393 51.8679L53.1527 54.0875ZM30.9657 30.4837C31.9983 30.2353 32.8488 30.7693 33.331 31.3687C33.8092 31.9631 34.0924 32.7979 33.9827 33.6232L31.7641 33.3283C31.7731 33.261 31.768 33.1664 31.7348 33.0566C31.7017 32.947 31.6479 32.8471 31.5872 32.7716C31.5255 32.6949 31.4761 32.6667 31.4609 32.6601C31.456 32.658 31.4734 32.6635 31.4892 32.6597L30.9657 30.4837ZM24.5773 41.3959C24.6445 41.4048 24.7387 41.3996 24.8479 41.3664C24.9569 41.3334 25.0561 41.2798 25.131 41.2193C25.2072 41.1579 25.2353 41.1087 25.2419 41.0935C25.2441 41.0883 25.2387 41.1054 25.2424 41.1208L27.4191 40.6C27.6655 41.63 27.1343 42.4789 26.5361 42.9614C25.9431 43.4397 25.1102 43.7232 24.2861 43.615L24.5773 41.3959ZM24.6013 63.5381C25.1886 63.72 25.8143 63.3909 25.9945 62.8001L23.8538 62.147C24.0362 61.5492 24.6694 61.2161 25.2637 61.4002L24.6013 63.5381ZM23.4641 35.1944C23.0632 34.0466 23.6446 32.7584 24.8231 32.3421L25.5686 34.4524C25.5683 34.4525 25.5692 34.4522 25.5707 34.4512C25.5722 34.4503 25.5736 34.4493 25.5748 34.4482C25.5771 34.4461 25.5773 34.4451 25.5768 34.4462C25.5762 34.4473 25.5759 34.4488 25.5758 34.4501C25.5758 34.4506 25.5758 34.4512 25.5759 34.452C25.576 34.4526 25.5762 34.454 25.577 34.4563L23.4641 35.1944ZM25.6153 55.061C25.6124 55.0767 25.6187 55.0937 25.6163 55.089C25.609 55.0743 25.5785 55.0268 25.4992 54.9695C25.4211 54.9131 25.3192 54.8649 25.2085 54.8377C25.0977 54.8104 25.0033 54.8103 24.9367 54.8227L24.5271 52.6224C25.3445 52.4702 26.1916 52.7089 26.8094 53.155C27.4327 53.6051 28.0086 54.4252 27.8161 55.4674L25.6153 55.061ZM46.7674 64.9522C45.7443 65.1956 44.8987 64.6729 44.4153 64.078C43.9367 63.4889 43.6527 62.6615 43.7567 61.8409L45.977 62.1222C45.9686 62.1891 45.9741 62.2821 46.007 62.3893C46.0399 62.4963 46.0928 62.5934 46.1523 62.6666C46.2127 62.7409 46.2608 62.7681 46.2756 62.7744C46.2804 62.7766 46.264 62.7714 46.2493 62.7749L46.7674 64.9522ZM25.2405 61.407C24.6532 61.229 24.0328 61.5602 23.8538 62.147L25.9945 62.8001C25.8134 63.3939 25.1856 63.729 24.5914 63.5489L25.2405 61.407ZM54.6288 61.3191C54.8414 61.9003 54.5431 62.5439 53.9622 62.7574L53.1901 60.6567C52.6121 60.8692 52.3154 61.5096 52.5269 62.0879L54.6288 61.3191ZM24.5821 63.5461C23.9812 63.3639 23.6424 62.7288 23.8255 62.1284L25.9663 62.7813C26.1441 62.1981 25.815 61.5812 25.2314 61.4042L24.5821 63.5461Z" fill="#535353"/>
<path fill-rule="evenodd" clip-rule="evenodd" d="M47.4565 76.186C47.3745 73.0496 49.8505 70.4405 52.9869 70.3585C53.2857 70.3507 53.5797 70.3661 53.8672 70.403C54.8407 70.5282 55.9818 69.7167 55.7551 68.7617C55.2383 66.5847 54.5212 64.2684 53.6009 61.6919L53.5932 61.6709C53.5925 61.6692 53.5905 61.6682 53.5887 61.6689C51.0141 62.5972 48.6933 63.3213 46.5087 63.8433C45.5523 64.0718 44.738 62.9265 44.8638 61.9512C44.9009 61.6631 44.9164 61.3684 44.9086 61.069C44.8265 57.9326 42.2175 55.4566 39.0811 55.5386C35.9447 55.6207 33.4686 58.2297 33.5507 61.3661C33.5588 61.6746 33.5913 61.9767 33.6463 62.2705C33.8276 63.238 33.0783 64.4293 32.1102 64.2516C29.9003 63.8462 27.5517 63.2383 24.9422 62.4301C24.9325 62.4271 24.9222 62.4326 24.9192 62.4423C24.1152 65.0606 23.5057 67.4093 23.0942 69.6106C22.9129 70.5807 24.1087 71.3373 25.0792 71.1582C25.3685 71.1047 25.6657 71.0732 25.969 71.0652C29.1054 70.9832 31.7145 73.4592 31.7966 76.5956C31.8786 79.732 29.4026 82.3411 26.2662 82.4232C25.9592 82.4312 25.6573 82.4147 25.3623 82.3755C24.3838 82.2455 23.2273 83.0618 23.4582 84.0216C23.9111 85.9036 24.5186 87.8868 25.2831 90.0507C25.4884 90.6318 26.1293 90.9292 26.7112 90.726C28.8784 89.9689 30.8638 89.3663 32.7459 88.9159C33.7044 88.6866 34.5196 89.8386 34.3912 90.8158C34.3527 91.1082 34.3366 91.4075 34.3446 91.7117C34.4266 94.8481 37.0357 97.3242 40.1721 97.2421C43.3085 97.16 45.7845 94.551 45.7025 91.4146C45.6945 91.108 45.6623 90.8078 45.6079 90.5157C45.4273 89.5465 46.1803 88.352 47.1497 88.5311C49.3588 88.9391 51.7136 89.5467 54.3391 90.3506C54.3487 90.3535 54.359 90.348 54.3619 90.3383C55.1567 87.7163 55.7561 85.3641 56.157 83.1563C56.3325 82.1899 55.1469 81.4425 54.1812 81.6221C53.8896 81.6763 53.59 81.7084 53.284 81.7164C50.1476 81.7984 47.5386 79.3224 47.4565 76.186Z" fill="#77B6FF"/>
<path d="M53.6009 61.6919L54.6512 61.3058L54.6547 61.3155L53.6009 61.6919ZM54.1812 81.6221L54.3858 82.7223L54.1812 81.6221ZM53.8672 70.403L53.7244 71.5129L53.8672 70.403ZM54.3619 90.3383L53.291 90.0137L54.3619 90.3383ZM34.3912 90.8158L35.5007 90.9616L34.3912 90.8158ZM25.2831 90.0507L26.3382 89.6779L25.2831 90.0507ZM33.6463 62.2705L32.5464 62.4766L33.6463 62.2705ZM32.1102 64.2516L31.9082 65.3523L32.1102 64.2516ZM24.9422 62.4301L24.6112 63.4991L24.9422 62.4301ZM25.3623 82.3755L25.2149 83.4848L25.3623 82.3755ZM23.4582 84.0216L22.3702 84.2834L23.4582 84.0216ZM46.5087 63.8433L46.7688 64.9317L46.5087 63.8433ZM53.5932 61.6709L54.6435 61.2849L53.5932 61.6709ZM23.0942 69.6106L21.9942 69.405L23.0942 69.6106ZM25.0792 71.1582L25.2824 72.2586L25.0792 71.1582ZM53.0162 71.4771C50.4976 71.543 48.5093 73.6382 48.5752 76.1567L46.3378 76.2153C46.2396 72.461 49.2034 69.338 52.9576 69.2398L53.0162 71.4771ZM53.7244 71.5129C53.4938 71.4833 53.2573 71.4708 53.0162 71.4771L52.9576 69.2398C53.3141 69.2305 53.6656 69.2488 54.0099 69.2931L53.7244 71.5129ZM54.6547 61.3155C55.584 63.9172 56.3148 66.2745 56.8439 68.5032L54.6663 69.0202C54.1618 66.8948 53.4583 64.6195 52.547 62.0683L54.6547 61.3155ZM54.6435 61.2849L54.6512 61.3058L52.5505 62.078L52.5428 62.057L54.6435 61.2849ZM46.2486 62.7549C48.381 62.2454 50.6604 61.5352 53.2092 60.6162L53.9683 62.7216C51.3679 63.6592 49.0056 64.3973 46.7688 64.9317L46.2486 62.7549ZM46.0273 61.0397C46.0366 61.397 46.0181 61.7493 45.9736 62.0943L43.7539 61.8081C43.7837 61.5769 43.7962 61.3399 43.7899 61.0983L46.0273 61.0397ZM39.0518 54.4199C42.806 54.3217 45.929 57.2855 46.0273 61.0397L43.7899 61.0983C43.724 58.5797 41.6289 56.5914 39.1103 56.6573L39.0518 54.4199ZM32.432 61.3954C32.3338 57.6412 35.2976 54.5182 39.0518 54.4199L39.1103 56.6573C36.5918 56.7232 34.6035 58.8183 34.6694 61.3369L32.432 61.3954ZM32.5464 62.4766C32.4805 62.1246 32.4416 61.7634 32.432 61.3954L34.6694 61.3369C34.6759 61.5858 34.7021 61.8287 34.7462 62.0645L32.5464 62.4766ZM25.2733 61.3612C27.8543 62.1606 30.1582 62.7558 32.3121 63.151L31.9082 65.3523C29.6424 64.9366 27.2491 64.3161 24.6112 63.4991L25.2733 61.3612ZM21.9942 69.405C22.4157 67.1499 23.0373 64.7585 23.8494 62.1138L25.9889 62.7708C25.193 65.3627 24.5956 67.6687 24.1942 69.8162L21.9942 69.405ZM25.9983 72.1839C25.7535 72.1903 25.5145 72.2158 25.2824 72.2586L24.8761 70.0577C25.2225 69.9937 25.5779 69.956 25.9398 69.9466L25.9983 72.1839ZM30.6779 76.6249C30.612 74.1063 28.5169 72.118 25.9983 72.1839L25.9398 69.9466C29.694 69.8484 32.817 72.8121 32.9152 76.5664L30.6779 76.6249ZM26.2369 81.3045C28.7555 81.2386 30.7438 79.1435 30.6779 76.6249L32.9152 76.5664C33.0134 80.3206 30.0497 83.4436 26.2954 83.5418L26.2369 81.3045ZM25.5097 81.2662C25.7464 81.2977 25.9892 81.311 26.2369 81.3045L26.2954 83.5418C25.9292 83.5514 25.5682 83.5318 25.2149 83.4848L25.5097 81.2662ZM24.228 90.4234C23.4543 88.2335 22.8343 86.2122 22.3702 84.2834L24.5462 83.7598C24.9878 85.5949 25.583 87.5401 26.3382 89.6779L24.228 90.4234ZM33.0064 90.0043C31.1701 90.4437 29.2219 91.0343 27.0803 91.7824L26.3422 89.6695C28.5349 88.9036 30.5575 88.289 32.4855 87.8276L33.0064 90.0043ZM33.2259 91.741C33.2164 91.378 33.2356 91.0202 33.2817 90.6699L35.5007 90.9616C35.4698 91.1962 35.4568 91.437 35.4632 91.6825L33.2259 91.741ZM40.2014 98.3608C36.4471 98.459 33.3241 95.4952 33.2259 91.741L35.4632 91.6825C35.5291 94.201 37.6243 96.1893 40.1428 96.1234L40.2014 98.3608ZM46.8212 91.3853C46.9194 95.1395 43.9556 98.2626 40.2014 98.3608L40.1428 96.1234C42.6614 96.0575 44.6497 93.9624 44.5838 91.4438L46.8212 91.3853ZM46.708 90.3107C46.7732 90.6606 46.8116 91.0196 46.8212 91.3853L44.5838 91.4438C44.5773 91.1965 44.5514 90.955 44.5078 90.7206L46.708 90.3107ZM54.0115 91.4206C51.4127 90.6249 49.1012 90.0295 46.9465 89.6315L47.3529 87.4306C49.6164 87.8487 52.0145 88.4685 54.6667 89.2805L54.0115 91.4206ZM57.2581 83.3563C56.8473 85.6185 56.2358 88.014 55.4328 90.663L53.291 90.0137C54.0776 87.4186 54.6649 85.1098 55.056 82.9564L57.2581 83.3563ZM53.2548 80.5977C53.5016 80.5913 53.7427 80.5654 53.9766 80.5219L54.3858 82.7223C54.0366 82.7872 53.6783 82.8255 53.3133 82.8351L53.2548 80.5977ZM48.5752 76.1567C48.6411 78.6753 50.7362 80.6636 53.2548 80.5977L53.3133 82.8351C49.5591 82.9333 46.4361 79.9695 46.3378 76.2153L48.5752 76.1567ZM55.056 82.9564C55.0532 82.9716 55.0594 82.9884 55.0572 82.984C55.0501 82.9699 55.0203 82.9232 54.9422 82.8669C54.8653 82.8114 54.7647 82.7638 54.6554 82.737C54.5458 82.7101 54.4522 82.7099 54.3858 82.7223L53.9766 80.5219C54.7913 80.3704 55.6355 80.6072 56.2519 81.052C56.8743 81.5012 57.4466 82.3181 57.2581 83.3563L55.056 82.9564ZM54.0099 69.2931C54.0768 69.3017 54.1702 69.2963 54.2779 69.2634C54.3855 69.2306 54.4833 69.1775 54.557 69.1178C54.6319 69.0571 54.6594 69.0087 54.6658 68.9938C54.668 68.9888 54.6628 69.0053 54.6663 69.0202L56.8439 68.5032C57.0872 69.5283 56.5616 70.3744 55.9655 70.8571C55.375 71.3353 54.5459 71.6186 53.7244 71.5129L54.0099 69.2931ZM54.6655 89.2802C54.0768 89.1006 53.4656 89.4377 53.291 90.0137L55.4328 90.663C55.2524 91.2583 54.6207 91.6064 54.0127 91.4209L54.6655 89.2802ZM44.5078 90.7206C44.3555 89.9031 44.5941 89.0558 45.0402 88.4378C45.4902 87.8144 46.3104 87.2381 47.3529 87.4306L46.9465 89.6315C46.9623 89.6344 46.9792 89.6281 46.9745 89.6305C46.9598 89.6378 46.9122 89.6683 46.8549 89.7478C46.7985 89.8259 46.7502 89.928 46.723 90.0387C46.6957 90.1496 46.6956 90.2441 46.708 90.3107L44.5078 90.7206ZM32.4855 87.8276C33.5158 87.5811 34.3649 88.1127 34.8473 88.7111C35.3255 89.3042 35.609 90.1373 35.5007 90.9616L33.2817 90.6699C33.2905 90.6027 33.2853 90.5085 33.2522 90.3992C33.2191 90.2901 33.1655 90.1909 33.105 90.1158C33.0435 90.0395 32.9942 90.0114 32.979 90.0048C32.9738 90.0025 32.9909 90.008 33.0064 90.0043L32.4855 87.8276ZM26.3382 89.6779C26.3384 89.6783 26.3381 89.6774 26.3371 89.6758C26.3362 89.6743 26.3351 89.6729 26.3341 89.6717C26.332 89.6695 26.331 89.6693 26.3321 89.6698C26.3332 89.6703 26.3346 89.6707 26.336 89.6707C26.3365 89.6708 26.3371 89.6708 26.3378 89.6707C26.3385 89.6706 26.3399 89.6703 26.3422 89.6695L27.0803 91.7824C25.9325 92.1834 24.6443 91.6019 24.228 90.4234L26.3382 89.6779ZM34.7462 62.0645C34.8991 62.8806 34.6622 63.7269 34.2172 64.3446C33.7681 64.9681 32.9494 65.5434 31.9082 65.3523L32.3121 63.151C32.2964 63.1481 32.2793 63.1544 32.2835 63.1523C32.2976 63.1452 32.3446 63.1152 32.4013 63.0364C32.4571 62.9589 32.5049 62.8576 32.5319 62.7475C32.5588 62.6372 32.5589 62.5431 32.5464 62.4766L34.7462 62.0645ZM24.6112 63.4991C25.187 63.6774 25.8097 63.3586 25.9896 62.7687L23.8488 62.1158C24.0347 61.5065 24.6781 61.1768 25.2733 61.3612L24.6112 63.4991ZM25.2149 83.4848C25.1476 83.4759 25.053 83.4809 24.9432 83.5141C24.8335 83.5472 24.7337 83.601 24.6582 83.6618C24.5815 83.7235 24.5533 83.7729 24.5467 83.7881C24.5445 83.793 24.55 83.7756 24.5462 83.7598L22.3702 84.2834C22.1218 83.2508 22.6557 82.4003 23.2552 81.918C23.8495 81.4398 24.6844 81.1565 25.5097 81.2662L25.2149 83.4848ZM46.7688 64.9317C45.7416 65.1772 44.8938 64.6495 44.4107 64.0528C43.932 63.4616 43.6478 62.6309 43.7539 61.8081L45.9736 62.0943C45.965 62.1614 45.9704 62.2551 46.0035 62.3636C46.0366 62.4718 46.09 62.5702 46.1502 62.6445C46.2113 62.7201 46.2602 62.7478 46.2753 62.7544C46.2805 62.7566 46.2638 62.7513 46.2486 62.7549L46.7688 64.9317ZM52.5428 62.057C52.755 62.6344 53.3945 62.931 53.9723 62.7201L53.2051 60.6176C53.7866 60.4055 54.43 60.704 54.6435 61.2849L52.5428 62.057ZM24.1942 69.8162C24.1972 69.8003 24.1908 69.7833 24.1933 69.7884C24.2007 69.8033 24.2315 69.8513 24.3112 69.9091C24.3897 69.966 24.4922 70.0146 24.6033 70.0422C24.7146 70.0697 24.8093 70.07 24.8761 70.0577L25.2824 72.2586C24.4638 72.4097 23.6159 72.169 22.9983 71.7216C22.3753 71.2703 21.7992 70.4484 21.9942 69.405L24.1942 69.8162Z" fill="#535353"/>
<rect x="56.1768" y="16.1885" width="2.2381" height="18.2629" transform="rotate(15 56.1768 16.1885)" fill="#535353"/>
<rect x="99.2217" y="64.2856" width="2.2381" height="18.2629" transform="rotate(105 99.2217 64.2856)" fill="#535353"/>
<path fill-rule="evenodd" clip-rule="evenodd" d="M59.6304 9.61766C59.4891 9.19396 58.9608 9.05242 58.6266 9.34869L50.7315 16.3468C50.6726 16.399 50.6266 16.4583 50.5929 16.5216C49.7104 17.3872 48.9938 18.6045 48.6099 20.0374C47.7275 23.3304 48.9359 26.5154 51.3089 27.1512C52.4163 27.448 53.5817 27.1371 54.5994 26.3863C55.1054 27.5454 55.9592 28.3974 57.0667 28.6942C59.4397 29.33 62.0786 27.1759 62.961 23.8829C63.345 22.4497 63.333 21.037 63.0014 19.846C63.0038 19.7745 62.9936 19.7003 62.9688 19.6257L59.6304 9.61766Z" fill="#535353"/>
<path fill-rule="evenodd" clip-rule="evenodd" d="M105.792 67.7401C106.216 67.5988 106.357 67.0705 106.061 66.7363L99.063 58.8411C99.0103 58.7817 98.9503 58.7354 98.8864 58.7016C98.0208 57.8195 96.8039 57.1033 95.3715 56.7195C92.0784 55.8372 88.8935 57.0455 88.2576 59.4185C87.9609 60.5259 88.2718 61.6912 89.0225 62.709C87.8635 63.215 87.0116 64.0687 86.7149 65.1761C86.0791 67.5491 88.2332 70.1881 91.5262 71.0704C92.9591 71.4544 94.3716 71.4425 95.5625 71.111C95.6344 71.1136 95.709 71.1034 95.784 71.0784L105.792 67.7401Z" fill="#535353"/>
<circle cx="53.5671" cy="61.5519" r="5.41621" transform="rotate(15 53.5671 61.5519)" fill="#535353"/>
</svg>
