<svg width="244" height="70" viewBox="0 0 244 70" fill="none" xmlns="http://www.w3.org/2000/svg">
<path d="M70.1451 59.5C65.5077 59.5 60.6182 58.2036 56.3988 55.638C54.0592 54.2153 53.8701 51.0564 55.618 48.9486C57.46 46.7274 60.7557 46.5187 63.3282 47.8259C65.6662 49.0141 68.1473 49.7254 70.399 49.7254C74.5881 49.7254 76.5557 48.1386 76.5557 45.5997C76.5557 42.8705 73.9534 41.9819 69.8912 40.2681L63.8614 37.7293C58.9106 35.7617 54.2772 31.636 54.2772 24.7811C54.2772 16.8471 61.386 10.5 71.4145 10.5C75.5082 10.5 79.7804 11.6781 83.4011 14.0074C85.4794 15.3444 85.6138 18.181 84.0764 20.1157C82.4351 22.1812 79.4916 22.4408 77.0748 21.3829C75.3161 20.613 73.4859 20.2111 71.4145 20.2111C67.9236 20.2111 65.829 21.6075 65.829 24.0829C65.829 26.7487 68.7487 27.7642 72.9378 29.4145L78.8407 31.763C84.68 34.1114 88.171 38.0466 88.171 44.7111C88.171 52.5816 81.5699 59.5 70.1451 59.5Z" fill="#0000FF"/>
<path d="M111.508 59.5C101.098 59.5 93.1009 52.5181 93.1009 40.522C93.1009 28.8433 101.543 21.6075 110.238 21.6075C120.648 21.6075 125.725 29.1606 125.725 38.9987C125.725 41.9139 123.208 43.886 120.292 43.886H116.551C110.079 43.886 106.559 50.8679 113.031 50.8679C114.344 50.8679 115.608 50.674 116.873 50.2862C119.048 49.6196 121.553 50.2252 122.651 52.217C123.644 54.0164 123.138 56.307 121.285 57.1936C118.142 58.6966 114.615 59.5 111.508 59.5ZM107.32 31.0042C104.255 32.6817 107.037 36.4598 110.531 36.4598C113.63 36.4598 116.608 33.3491 114.206 31.3923C113.308 30.6611 112.069 30.2396 110.429 30.2396C109.32 30.2396 108.26 30.4897 107.32 31.0042Z" fill="#0000FF"/>
<path d="M149.318 59.5C138.909 59.5 130.911 52.5181 130.911 40.522C130.911 28.8433 139.353 21.6075 148.048 21.6075C158.458 21.6075 163.535 29.1606 163.535 38.9987C163.535 41.9139 161.018 43.886 158.103 43.886H154.361C147.889 43.886 144.369 50.8679 150.841 50.8679C152.154 50.8679 153.419 50.674 154.684 50.2862C156.858 49.6196 159.363 50.2252 160.462 52.217C161.454 54.0164 160.948 56.307 159.095 57.1936C155.952 58.6966 152.425 59.5 149.318 59.5ZM145.13 31.0042C142.065 32.6817 144.848 36.4598 148.342 36.4598C151.44 36.4598 154.418 33.3491 152.016 31.3923C151.118 30.6611 149.879 30.2396 148.239 30.2396C147.13 30.2396 146.07 30.4897 145.13 31.0042Z" fill="#0000FF"/>
<path d="M177.322 58.6114C174.184 58.6114 171.641 56.0681 171.641 52.9307V26.3996C171.641 18.0742 178.39 11.3251 186.715 11.3251H197.061C199.673 11.3251 201.79 13.4422 201.79 16.0538C201.79 18.6653 199.673 20.7824 197.061 20.7824H188.175C185.318 20.7824 183.002 23.0984 183.002 25.9553C183.002 28.8122 185.318 31.1282 188.175 31.1282H194.395C197.007 31.1282 199.124 33.2453 199.124 35.8569C199.124 38.4684 197.007 40.5855 194.395 40.5855H191.063C186.611 40.5855 183.002 44.1945 183.002 48.6464V52.9307C183.002 56.0681 180.459 58.6114 177.322 58.6114Z" fill="#84B8FB"/>
<path d="M224.768 58.6114C221.63 58.6114 219.087 56.0681 219.087 52.9307V27.1613C219.087 23.6383 216.231 20.7824 212.708 20.7824H211.058C208.446 20.7824 206.329 18.6653 206.329 16.0538C206.329 13.4422 208.446 11.3251 211.058 11.3251H238.541C241.152 11.3251 243.27 13.4422 243.27 16.0538C243.27 18.6653 241.152 20.7824 238.541 20.7824H236.859C233.318 20.7824 230.448 23.6525 230.448 27.193V52.9307C230.448 56.0681 227.905 58.6114 224.768 58.6114Z" fill="#84B8FB"/>
<circle cx="26.9052" cy="44.6464" r="17.7185" transform="rotate(150.516 26.9052 44.6464)" fill="#84B8FB"/>
<circle cx="28.4877" cy="25.3535" r="17.7185" transform="rotate(150.516 28.4877 25.3535)" fill="#84B8FB"/>
<path d="M23.752 42.4263C20.9443 41.6468 18.3723 40.187 16.2636 38.176C14.1549 36.1651 12.5747 33.6651 11.663 30.8976C10.7513 28.1301 10.5362 25.1805 11.0367 22.3099C11.5372 19.4394 12.7379 16.7367 14.5325 14.441C16.3271 12.1454 18.6601 10.3278 21.3249 9.14921C23.9897 7.9706 26.9041 7.46739 29.8099 7.68414C32.7156 7.9009 35.5231 8.83093 37.9835 10.3918C40.444 11.9528 42.4815 14.0964 43.9157 16.6329L28.4918 25.3536L23.752 42.4263Z" fill="#0000FF"/>
<path d="M31.6451 27.5732C34.4528 28.3527 37.0248 29.8125 39.1335 31.8235C41.2422 33.8344 42.8223 36.3344 43.7341 39.1019C44.6458 41.8694 44.8609 44.819 44.3604 47.6896C43.8599 50.5601 42.6592 53.2628 40.8646 55.5585C39.07 57.8541 36.737 59.6717 34.0722 60.8503C31.4073 62.0289 28.493 62.5321 25.5872 62.3154C22.6815 62.0986 19.874 61.1686 17.4136 59.6077C14.9531 58.0467 12.9156 55.9031 11.4814 53.3666L26.9053 44.646L31.6451 27.5732Z" fill="#0000FF"/>
<path d="M29.0736 26.8485C28.5238 27.1523 27.718 26.7468 27.2738 25.9428C26.8297 25.1388 26.9153 24.2408 27.465 23.9371C28.0148 23.6333 43.5187 15.9184 43.9628 16.7223C44.407 17.5263 29.6234 26.5448 29.0736 26.8485Z" fill="white"/>
<path d="M27.0228 24.5118C27.1678 23.9748 27.9655 23.7231 28.8045 23.9496C29.6436 24.1762 30.2062 24.7952 30.0612 25.3322C29.9162 25.8692 25.2419 40.478 24.4029 40.2514C23.5639 40.0249 26.8778 25.0488 27.0228 24.5118Z" fill="white"/>
<path d="M26.3495 43.2256C26.8978 42.9193 27.7055 43.3209 28.1535 44.1228C28.6016 44.9246 28.5202 45.823 27.9719 46.1294C27.4236 46.4358 11.9566 54.2245 11.5086 53.4226C11.0606 52.6208 25.8012 43.532 26.3495 43.2256Z" fill="white"/>
<path d="M28.4113 45.5523C28.2689 46.0901 27.4724 46.3456 26.6322 46.123C25.7921 45.9005 25.2266 45.2841 25.369 44.7464C25.5115 44.2087 30.1161 29.5779 30.9562 29.8004C31.7963 30.023 28.5538 45.0146 28.4113 45.5523Z" fill="white"/>
</svg>
